HIERARCHY
ROOT Hips
{
	OFFSET 0.000000 0.000000 0.000000 
	CHANNELS 6 Xposition Yposition Zposition Yrotation Zrotation Xrotation 
	JOINT Lumbar
	{
		OFFSET 0.000000 0.000000 0.000000 
		CHANNELS 3 Zrotation Xrotation Yrotation
		JOINT Neck
		{
			OFFSET 0.000000 0.445665 0.000000 
			CHANNELS 3 Zrotation Xrotation Yrotation
			End Site
			{
				OFFSET 0.000000 0.227535 0.000000 
			}
		}
		JOINT RightShoulder
		{
			OFFSET 0.019635 0.377685 0.194865 
			CHANNELS 3 Zrotation Xrotation Yrotation
			JOINT RightElbow
			{
				OFFSET 0.000000 -0.243375 0.000000 
				CHANNELS 2 Zrotation Yrotation
				JOINT RightWrist
				{
					OFFSET 0.000000 -0.264825 0.000000 
					CHANNELS 2 Zrotation Xrotation
					End Site
					{
						OFFSET 0.006600 -0.176220 0.000990 
					}
				}
			}
		}
		JOINT LeftShoulder
		{
			OFFSET 0.019635 0.377685 -0.194865 
			CHANNELS 3 Zrotation Xrotation Yrotation
			JOINT LeftElbow
			{
				OFFSET 0.000000 -0.243375 0.000000 
				CHANNELS 2 Zrotation Yrotation
				JOINT LeftWrist
				{
					OFFSET 0.000000 -0.264825 0.000000 
					CHANNELS 2 Zrotation Xrotation
					End Site
					{
						OFFSET 0.006600 -0.176220 -0.000990 
					}
				}
			}
		}
	}
	JOINT RightHip
	{
		OFFSET 0.052140 -0.069960 0.075570 
		CHANNELS 3 Zrotation Xrotation Yrotation
		JOINT RightKnee
		{
			OFFSET 0.000000 -0.402270 0.000000 
			CHANNELS 1 Zrotation
			JOINT RightAnkle
			{
				OFFSET 0.000000 -0.404085 0.000000 
				CHANNELS 3 Zrotation Xrotation Yrotation
				End Site
				{
					OFFSET 0.204105 -0.089430 0.008415 
				}
			}
		}
	}
	JOINT LeftHip
	{
		OFFSET 0.052140 -0.069960 -0.075570 
		CHANNELS 3 Zrotation Xrotation Yrotation
		JOINT LeftKnee
		{
			OFFSET 0.000000 -0.402270 0.000000 
			CHANNELS 1 Zrotation
			JOINT LeftAnkle
			{
				OFFSET 0.000000 -0.404085 0.000000 
				CHANNELS 3 Zrotation Xrotation Yrotation
				End Site
				{
					OFFSET 0.204105 -0.089430 -0.008415 
				}
			}
		}
	}
}
MOTION
Frames: 11
Frame Time: 0.02
-0.13182 0.94549 0.16123 169.44547 0 0.09645 -1.7425 -0.04697 3.83184 -23.367 -0.07331 2.51043 30.77659 -47.56381 58.6394 98.52015 70.25926 12.00433 -7.24053 35.5974 48.68215 -59.02004 102.13016 -99.464 7.72877 -2.40334 12.80553 -5.69517 -21.10288 -32.3943 8.20896 -3.32137 -1.88218 2.2186 0.22192 4.5051 -14.44122 9.58837 6.48534 6.58787
-0.1306 0.94673 0.15456 169.43098 0 -0.45705 -1.98341 0.23743 3.89451 -22.92145 0.12537 2.82905 32.21946 -46.04408 58.85783 98.68028 61.44211 15.80159 -7.91617 38.13335 47.74862 -58.89293 102.9827 -104.14586 10.87524 -3.73715 12.1651 -4.32771 -20.29654 -31.01635 7.63335 -3.56088 -2.34095 2.54058 1.18224 4.58832 -15.03721 9.55479 6.47137 6.58895
-0.12924 0.94797 0.14764 169.45043 0 -1.03051 -2.2393 0.54872 3.93528 -22.42218 0.33621 3.14588 33.5403 -43.8497 59.16066 97.84057 54.97347 16.84491 -9.25136 40.66672 46.23282 -58.80135 103.02268 -112.44075 12.10705 -4.49017 11.51508 -2.92125 -19.54656 -29.59359 6.94915 -3.93718 -3.0246 2.86022 2.17765 4.5578 -15.61095 9.49914 6.45527 6.61646
-0.12796 0.94918 0.14086 169.45273 0 -1.5882 -2.47987 0.84841 3.99053 -21.97017 0.53319 3.45798 34.95539 -41.94622 59.41984 97.40405 47.73278 19.06822 -10.22468 43.20216 44.9369 -58.70602 103.32649 -118.42101 14.04354 -5.4683 10.87335 -1.54579 -18.76392 -28.20182 6.32013 -4.23716 -3.59403 3.17414 3.14794 4.57372 -16.18292 9.45261 6.4423 6.63608
-0.12663 0.95049 0.13395 169.46202 0 -2.1762 -2.75744 1.14643 4.02819 -21.42059 0.76479 3.79335 36.2158 -40.09744 59.70696 97.20391 39.09424 21.66179 -11.44091 45.74581 43.82142 -58.5583 104.0951 -127.05418 16.69449 -6.64685 10.21334 -0.10857 -18.00602 -26.75884 5.6611 -4.59847 -4.22228 3.51631 4.16055 4.61079 -16.80416 9.40905 6.42068 6.63921
-0.12536 0.95161 0.12727 169.46503 0 -2.70472 -2.96107 1.45345 4.09592 -21.06097 0.92784 4.08049 37.76804 -37.98246 59.9527 96.25545 33.97732 22.80203 -12.31746 48.26876 42.19767 -58.52556 103.68399 -131.18294 17.40604 -7.2535 9.58965 1.20663 -17.21449 -25.41387 5.0414 -4.86478 -4.77901 3.8005 5.09174 4.57759 -17.31995 9.35475 6.41642 6.68223
-0.12432 0.95228 0.12124 169.44117 0 -3.06802 -2.95726 1.78511 4.2616 -21.25025 0.89298 4.22653 40.12931 -35.25765 60.0788 93.61937 38.07758 20.62615 -12.06677 50.71468 39.28529 -58.83602 100.35447 -120.83408 13.11405 -6.45667 9.0703 2.18069 -16.28434 -24.3568 4.5505 -4.82459 -5.07407 3.91036 5.7925 4.37312 -17.52523 9.27205 6.46015 6.83363
-0.12334 0.95276 0.11544 169.41013 0 -3.36995 -2.87833 2.12388 4.4565 -21.63055 0.78973 4.32512 42.79134 -32.29933 60.15813 90.24051 45.64437 17.0704 -11.45848 53.14131 35.89105 -59.2564 95.84216 -106.03728 6.95713 -5.09577 8.58794 3.02883 -15.32467 -23.40014 4.10496 -4.68568 -5.28946 3.96516 6.40923 4.10308 -17.63056 9.1803 6.52144 7.02331
-0.12232 0.95331 0.10955 169.38312 0 -3.69698 -2.83338 2.45487 4.63156 -21.91662 0.72153 4.45146 45.33213 -29.47186 60.24662 87.11007 51.61075 14.11996 -11.03542 55.58872 32.73169 -59.60256 91.77374 -94.06855 1.72309 -3.96305 8.0876 3.93044 -14.39972 -22.39386 3.6433 -4.59862 -5.54657 4.05399 7.06183 3.86615 -17.79641 9.09531 6.57495 7.19235
-0.12134 0.95393 0.10361 169.35382 0 -4.03589 -2.78959 2.80509 4.83325 -22.23297 0.63717 4.55357 47.80563 -26.50571 60.38402 84.31302 57.78847 11.16075 -10.54169 57.98719 29.46991 -60.04654 88.05761 -78.89069 -3.90698 -2.91924 7.59115 4.8495 -13.38663 -21.40106 3.1581 -4.48695 -5.79 4.10228 7.7249 3.61032 -17.89369 8.99776 6.6276 7.37609
-0.12029 0.95435 0.09784 169.32743 0 -4.33602 -2.72544 3.11776 4.98709 -22.53121 0.56987 4.69247 50.4898 -23.79508 60.41385 80.66846 64.28578 7.93507 -10.09849 60.48097 26.33331 -60.3197 83.35596 -69.20369 -9.11567 -1.57672 7.09637 5.70157 -12.54952 -20.40672 2.73501 -4.40123 -6.03806 4.22502 8.34647 3.38093 -18.11543 8.92526 6.68619 7.53786
